<svg xmlns="http://www.w3.org/2000/svg" width="1742" height="1742" style="shape-rendering:geometricPrecision;text-rendering:geometricPrecision;image-rendering:optimizeQuality;fill-rule:evenodd;clip-rule:evenodd"><path style="opacity:1" fill="#ff6e42" d="M1402.5 112.5c26.66.937 51.66 8.104 75 21.5 1.33 1.333 2.67 2.667 4 4 16.94 7.939 30.44 19.772 40.5 35.5a800.944 800.944 0 0 1 15 28 203.19 203.19 0 0 1 5.5 25.5 795.59 795.59 0 0 0-1.5 38.5 115.841 115.841 0 0 0-6 13c-8.33 5.341-11.83 13.008-10.5 23l-3 1.5c-7.04.505-14.04.505-21 0a147.259 147.259 0 0 0-10 10.5 24.22 24.22 0 0 1-7.5 3c-9.72-3.063-19.22-2.563-28.5 1.5-7.17.988-14.17.322-21-2l-19-1a393.02 393.02 0 0 0-39-6c-5.23-2.63-10.23-5.63-15-9-8.68-1.023-15.02-5.523-19-13.5a24.552 24.552 0 0 0-12-.5 338.482 338.482 0 0 1-44 22 241.541 241.541 0 0 0-43 35 172.049 172.049 0 0 0-18 13 108.746 108.746 0 0 0-21 12 737.78 737.78 0 0 1-22 23.5 122.802 122.802 0 0 0-11 18 284.07 284.07 0 0 0-12.5 16 136.493 136.493 0 0 0-23 22 323.5 323.5 0 0 0-23 35 200.4 200.4 0 0 1-19.5 19c-7.83 10.181-14.5 21.014-20 32.5.33.333.67.667 1 1a420.62 420.62 0 0 0-31.5 37.5 634.693 634.693 0 0 0-13 31c-10.54 10.012-12.87 21.679-7 35 4.42 1.622 8.92 3.122 13.5 4.5 4.24 3.382 6.4 7.882 6.5 13.5 1.67 1.667 3.33 3.333 5 5 1.38 4.434 3.05 8.768 5 13a90.213 90.213 0 0 1 10 8 802.39 802.39 0 0 0 7 29 64.38 64.38 0 0 1 6 9c.01 5.184.84 10.184 2.5 15 1.57 1.131 3.24 1.298 5 .5a185.969 185.969 0 0 1 22-24 127.954 127.954 0 0 0 22-16c14.51-10.156 30.18-18.156 47-24 12.68-7.499 26.35-12.499 41-15 17.99-3.033 35.99-5.866 54-8.5 9.43-.249 18.93.418 28.5 2a3.947 3.947 0 0 1 2-1 423.387 423.387 0 0 1 83.5 22.5 1119.973 1119.973 0 0 1 56 30 121.622 121.622 0 0 0 16 14c1.17 1.833 2.33 3.667 3.5 5.5a702.67 702.67 0 0 0 32 31c9.43 12.94 15.76 27.273 19 43a72.797 72.797 0 0 1 8 14c-.07 9.617.43 19.284 1.5 29a49.048 49.048 0 0 1-5 11c.44 1.645.77 3.311 1 5-2.8 25.534-10.3 49.534-22.5 72-1.42 12.732-7.09 23.065-17 31-7.4 9.395-13.07 19.728-17 31-1.17 1.167-2.33 2.333-3.5 3.5-5.11 1.028-9.61 3.195-13.5 6.5-.63 4.05-2.13 7.72-4.5 11-4.1 1.22-8.1 2.72-12 4.5-2.88 3.63-4.38 7.79-4.5 12.5-2.8 2.32-5.97 3.99-9.5 5-1.34 1.19-2.01 2.69-2 4.5a327.88 327.88 0 0 1 13.5 38.5c-.1 6.97 1.24 13.64 4 20 3.48 7.62 7.48 14.96 12 22 7.52 23.24 11.69 46.9 12.5 71 3.6 11.63 6.27 23.47 8 35.5-.3 7.76-.3 15.6 0 23.5-1.23 7.1-1.9 14.27-2 21.5 1.28 15.26 1.28 30.43 0 45.5-3.75 8.2-6.58 16.54-8.5 25a336.671 336.671 0 0 1-9 41c-3 4.33-6 8.67-9 13-10.52 8.51-17.85 19.18-22 32a76.55 76.55 0 0 1-8.5 6c-1.88 3.25-3.88 6.42-6 9.5-2.67 1.33-5.33 2.67-8 4l-6 9a87.042 87.042 0 0 1-17 4 11.42 11.42 0 0 0-3.5 4.5c-.6 3.14-1.6 6.14-3 9-8.33.99-12.33 5.66-12 14-.47 1.43-1.3 2.6-2.5 3.5a87.17 87.17 0 0 0-19.5 4.5l-1-1c-3.87 1.68-7.7 3.52-11.5 5.5-4.32.76-8.65 1.43-13 2-11.99 5.37-24.49 6.87-37.5 4.5-5.53.46-11.03 1.13-16.5 2-7.96-.53-15.79.47-23.5 3l-1-1a320.788 320.788 0 0 1-70.5 1.5c-39.95-5.32-78.62-15.66-116-31-6.46-1.2-12.79-2.86-19-5-16.174-8.95-33.508-14.28-52-16l-11.5-4.5c-3.319-3.32-7.152-5.82-11.5-7.5-4.125-.85-8.125-.52-12 1a172.501 172.501 0 0 1-26.5 27.5 100.782 100.782 0 0 1-9.5 13.5c-8.124 2.9-15.791 6.56-23 11-14.851 2.64-29.518 1.98-44-2a246.457 246.457 0 0 0-36-12 267.156 267.156 0 0 1-41-27 15.085 15.085 0 0 1-4.5-1.5 126.783 126.783 0 0 1-12.5 17 202.188 202.188 0 0 0-26 27.5 407.236 407.236 0 0 0-37 31 180.893 180.893 0 0 1-22 13 45.568 45.568 0 0 0-10 8 75.217 75.217 0 0 0-17 11c-12.806 7.72-26.473 13.72-41 18-21.539 16.1-45.539 26.77-72 32a217.327 217.327 0 0 1-19 7 427.024 427.024 0 0 1-29 3c-18.189 6.03-36.856 8.03-56 6a1382.583 1382.583 0 0 1-65-11 596.369 596.369 0 0 1-44-16 175.14 175.14 0 0 1-15-9 47.44 47.44 0 0 0-12-5 441.918 441.918 0 0 1-47.5-40.5c-10.692-16.72-18.692-34.72-24-54a5022.564 5022.564 0 0 1-8-43c-.6-6.68-1.1-13.18-1.5-19.5a3100.993 3100.993 0 0 1 19.5-108.5 389.96 389.96 0 0 0 16-52l3-3c13.801-43.43 34.134-83.43 61-120a578.516 578.516 0 0 1 39.5-41.5 152.572 152.572 0 0 1 31-20c1.304-.8 1.971-1.97 2-3.5-1.397-2.91-3.397-5.41-6-7.5-19.085-12.08-33.585-28.25-43.5-48.5-3.65-7.97-7.317-15.97-11-24-13.108-59.821-5.108-116.488 24-170l43-60a498.322 498.322 0 0 1 25.5-27.5 358.354 358.354 0 0 1 25-20 847.906 847.906 0 0 1 27-26 306.59 306.59 0 0 1 72-37 788.493 788.493 0 0 1 32-4 387.642 387.642 0 0 0 42-14 73.619 73.619 0 0 1 11-2 191.656 191.656 0 0 1 32.5 3.5c7.954.268 15.954-.399 24-2a191.317 191.317 0 0 1 35.5 7.5c10.367 4.342 20.701 8.675 31 13 6.907 9.629 16.241 14.296 28 14 8.167-9.5 17-18.333 26.5-26.5.667-1.667.667-3.333 0-5-14.883-12.039-27.383-26.039-37.5-42a14152.019 14152.019 0 0 0-98-104.5l-77-63c-17.83-13.423-36.83-25.089-57-35a1227.679 1227.679 0 0 1-37-14 1978.978 1978.978 0 0 0-48.5-10.5c-5.144-.015-8.977 2.152-11.5 6.5a48.897 48.897 0 0 1-3.5 13.5 646.57 646.57 0 0 0-19 29 97.754 97.754 0 0 1-18.5 14.5 79.553 79.553 0 0 0-14 16 102.264 102.264 0 0 1-11 8 156.19 156.19 0 0 1-22 20 174.91 174.91 0 0 0-21 10 1949.42 1949.42 0 0 1-27 6 73.968 73.968 0 0 0-18.5 2.5c-4.076-.476-8.409-1.142-13-2-23.464 1.26-45.63-3.573-66.5-14.5l-24-18c-12.373-10.598-18.706-24.098-19-40.5 4.678-35.306 20.345-64.473 47-87.5a562.661 562.661 0 0 1 27-17 246.871 246.871 0 0 1 50-6 552.224 552.224 0 0 1 47 0 2375.975 2375.975 0 0 1 47 5c5.125 3.491 10.792 5.824 17 7 5.664 7.008 12.664 12.342 21 16 29.039-1.883 57.373 1.784 85 11 56.902 20.266 107.236 50.933 151 92a179.617 179.617 0 0 0 15 10 720.011 720.011 0 0 0 33 30 298.631 298.631 0 0 1 20 21c6.141 5.471 12.308 10.971 18.5 16.5a36.3 36.3 0 0 1 7 10 204.483 204.483 0 0 0 25 23l3 5c15.339 14.443 29.005 30.109 41 47a99.567 99.567 0 0 1 7.5 14.5c2.471.706 4.805.373 7-1l6-6a991.124 991.124 0 0 0 37-20 133.047 133.047 0 0 0 24-10c13.919-5.07 28.252-6.737 43-5a379.377 379.377 0 0 1 48 20 29.271 29.271 0 0 1 10.5 2.5 11.333 11.333 0 0 1 3.5-1.5l15-1a2778.494 2778.494 0 0 1 12.5-30.5 377.311 377.311 0 0 0 28-51 516.318 516.318 0 0 1 32-44 159.536 159.536 0 0 1 17-25 409.834 409.834 0 0 1 33-35c21.42-30.752 47.58-56.918 78.5-78.5 19.15-18.496 40.48-33.829 64-46a8673.145 8673.145 0 0 1 41.5-21.5c1.73-3.222 1.9-6.556.5-10 .95-7.699 2.12-15.366 3.5-23a130.552 130.552 0 0 1 2-35c2.6-9.148 5.6-18.148 9-27 21.96-36.228 53.8-57.894 95.5-65zm23 27a337.855 337.855 0 0 1 42 12.5 104.712 104.712 0 0 1 21.5 20.5 325.741 325.741 0 0 0 12 21l6 18c1.99 16.444.66 32.777-4 49a69.566 69.566 0 0 1-17.5 11.5 4671.463 4671.463 0 0 0-38.5 7.5 419.34 419.34 0 0 0-20 0c-12.9-2.021-25.73-3.188-38.5-3.5a116.905 116.905 0 0 1-35-10 160.673 160.673 0 0 0-16.5-13.5c.33-12.484 2.83-24.484 7.5-36-5.31-12.238-2.98-22.738 7-31.5a22.16 22.16 0 0 0 8-5.5 134.783 134.783 0 0 1 25-26.5 54.077 54.077 0 0 1 9-4c11.54-.713 22.21-3.88 32-9.5zm-1129 217a417.857 417.857 0 0 1 39 2.5 20.51 20.51 0 0 1 8 3 9.839 9.839 0 0 1 1 4c-1.296 3.41-1.796 6.91-1.5 10.5a314.27 314.27 0 0 1 8.5 23 45.777 45.777 0 0 1-3 7 529.122 529.122 0 0 1-43 43.5 337.282 337.282 0 0 1-26 17c-12.974 6.329-26.641 8.662-41 7-19.901-.714-39.235-4.38-58-11a113.414 113.414 0 0 1-8.5-5.5 12.862 12.862 0 0 1-1.5-6 160.491 160.491 0 0 1 4.5-29 100.481 100.481 0 0 0 18-23 1279.314 1279.314 0 0 0 25.5-22.5c24.992-11.06 50.992-17.893 78-20.5zm608 270c16.955 2.794 33.955 5.627 51 8.5l10 4a231.156 231.156 0 0 0 18 9.5l9 12c6.195 2.362 11.03 6.362 14.5 12a306.11 306.11 0 0 1 3 21c2.08 4.493 4.41 8.826 7 13 .3 14.482 2.97 28.482 8 42-.03 9.798.97 19.465 3 29a51.127 51.127 0 0 0 12 12c-.71 7.796-2.38 15.463-5 23a1375.565 1375.565 0 0 1-3.5 30 149.115 149.115 0 0 1 2.5 20 12.42 12.42 0 0 1 2.5 4c-7.39 18.246-10.56 37.246-9.5 57a190.19 190.19 0 0 0 3.5 19 450.246 450.246 0 0 0-7.5 40c1.36 42.19-6.97 82.19-25 120a6629.609 6629.609 0 0 0-12 65c-3.006 10.35-6.006 20.68-9 31a474.707 474.707 0 0 0-27 84 511.012 511.012 0 0 0-25 72 76.98 76.98 0 0 0-4 9 443.183 443.183 0 0 0-32 53c-9.878 17.22-22.045 32.72-36.5 46.5-11.378 8.68-23.711 10.34-37 5a91.572 91.572 0 0 1-17-8 360.349 360.349 0 0 0-19.5-24.5c-4.302-8.6-8.636-17.27-13-26-8.384-10.77-14.051-22.77-17-36-9.027-15.4-18.027-30.73-27-46a1049.943 1049.943 0 0 0-11-31c-3.084-13.5-4.417-26.83-4-40a727.707 727.707 0 0 0-12-49l-.5-7a356.772 356.772 0 0 0 3-43 471.724 471.724 0 0 1-7-32c.397-1.49.73-2.99 1-4.5a240.146 240.146 0 0 1-3-16.5c.72-9.53 1.72-19.03 3-28.5-.461-20.71-1.128-41.71-2-63 .593-3.26.593-6.43 0-9.5a74.977 74.977 0 0 1 2-8.5 104.783 104.783 0 0 0-1-18c.639-8.847 2.472-17.347 5.5-25.5.404-6.072.237-11.906-.5-17.5 1.85-10.883 3.684-22.05 5.5-33.5 3.285-7.048 4.618-14.382 4-22 5.205-6.413 8.205-13.747 9-22a5962.818 5962.818 0 0 1 12-24 260.813 260.813 0 0 1 3-14 282.096 282.096 0 0 0 8-21 286.71 286.71 0 0 1 18-34 433.67 433.67 0 0 0 32-46 793.492 793.492 0 0 0 25.5-22 33.65 33.65 0 0 1 3.5-11c8.927-10.612 19.761-18.446 32.5-23.5a109.5 109.5 0 0 1 13-12c11.508-3.202 21.841-8.536 31-16a102.21 102.21 0 0 0 12-6.5zm-397 88c5.726-.458 10.726-2.458 15-6 1.667-1 3-2.333 4-4a208.022 208.022 0 0 1 30-8.5 36.16 36.16 0 0 1 7-4 250.45 250.45 0 0 1 21-6l8-4a164.64 164.64 0 0 0 18-2 312.384 312.384 0 0 1 32-13 49.226 49.226 0 0 1 14 0c12.079 3.041 23.079 8.208 33 15.5 1.915 1.571 2.915 3.571 3 6 4.479-1.617 7.812-.283 10 4 4.068 1.453 7.568 3.786 10.5 7a164.298 164.298 0 0 0 2.5 16.5l-3.5 8.5a164.714 164.714 0 0 0-14 20 208.149 208.149 0 0 1-16 32 786.766 786.766 0 0 0-30 87 701.89 701.89 0 0 0-6.5 46.5c.635 3.92.301 7.92-1 12a54.49 54.49 0 0 0 1 4.5 566.909 566.909 0 0 0-4.5 23 951.234 951.234 0 0 1-3.5 50.5c.871 9.34 1.037 18.84.5 28.5-.759 2.13-2.259 3.47-4.5 4a139.57 139.57 0 0 1-25-13.5 25.707 25.707 0 0 1-7.5-2.5c-2.401 1.1-4.901 1.27-7.5.5a172.29 172.29 0 0 0-16-4c-10.52.55-21.02.38-31.5-.5a90.586 90.586 0 0 1-16.5 4c-4.677-.52-9.01-1.85-13-4a24.059 24.059 0 0 0-9 2.5c-2.667.67-5.333.67-8 0a15.572 15.572 0 0 0-7.5-3.5c-11.482 3.83-22.982 7.66-34.5 11.5a474.975 474.975 0 0 0-31 20c-8.373 5.01-17.373 8.34-27 10a521.408 521.408 0 0 1-19.5 9.5 52.786 52.786 0 0 1-10.5-5.5 611.17 611.17 0 0 0-27.5-32.5 67.804 67.804 0 0 1-7-12 3779.924 3779.924 0 0 1-3.5-59.5 199.54 199.54 0 0 1 7.5-41.5 423.798 423.798 0 0 1 14-39 845.471 845.471 0 0 1 21-33 486.75 486.75 0 0 0 32-42c6.5-5.167 12.333-11 17.5-17.5l10-6a990.91 990.91 0 0 0 39-36 95.822 95.822 0 0 0 27-19c2.317-2.157 4.984-3.657 8-4.5zm782-35c4.01-.166 8.01.001 12 .5a84.85 84.85 0 0 0 21 5c17.11 3.202 33.77 8.202 50 15a631.166 631.166 0 0 1 29 18 2382.452 2382.452 0 0 1 32.5 32.5 242.592 242.592 0 0 1 26 44c3.42 13.779 4.42 27.779 3 42-4.48 36.771-16.48 70.771-36 102l-9 11a1133.68 1133.68 0 0 0-40.5 39.5c-7.77 3.8-13.77 1.8-18-6a809.154 809.154 0 0 0-64-42c-12.15-4.834-24.49-9.5-37-14a353.66 353.66 0 0 0-44-11c-30.92-1.257-59.92 5.743-87 21a525.445 525.445 0 0 1-25 18c-2.33 2.333-4.67 4.667-7 7-3.36 1.293-5.36.293-6-3a1480.24 1480.24 0 0 0 4.5-33.5c2.07-3.803 4.4-7.47 7-11 2.33-3.922 2.66-7.922 1-12-7.15-5.708-10.32-13.208-9.5-22.5 1.89-11.479 3.72-22.979 5.5-34.5a40.65 40.65 0 0 0 5.5-8.5c-2.23-2.951-5.23-4.618-9-5-5.54-5.651-6.54-12.151-3-19.5-1.37-9.988-.54-19.988 2.5-30a162.064 162.064 0 0 0 21-36c4.23-6.226 10.07-10.059 17.5-11.5a183.104 183.104 0 0 1 20-11c3.02-2.023 5.35-4.69 7-8 6.77-5.377 14.27-8.211 22.5-8.5a274.773 274.773 0 0 0 32.5-12.5 119.037 119.037 0 0 0 23-7c15.49-4.228 31.16-6.228 47-6 1.99-.374 3.66-1.207 5-2.5zm-86 266c6.25.335 12.58.502 19 .5 39.7 8.848 74.7 26.682 105 53.5 1.13 1.57 1.3 3.24.5 5-9.17 4.34-18.34 8.84-27.5 13.5a54.79 54.79 0 0 1-7 2c-18.15 1.55-36.15 3.22-54 5-27.31 1.49-54.31-1.18-81-8-12.82-5.57-25.82-10.9-39-16-2.24-.73-3.57-2.234-4-4.5a89.686 89.686 0 0 1 11-16.5 768.873 768.873 0 0 1 39-26 256.806 256.806 0 0 0 23.5-6.5c.87.235 1.71.569 2.5 1 4.05-1.324 8.05-2.324 12-3zm-106 76c1.7-.16 3.37.01 5 .5 5.66 4.5 11.66 8.5 18 12 7.77 2.72 15.44 5.72 23 9a2001.18 2001.18 0 0 1 68 20c12.18.45 24.18 2.12 36 5 21.02 2.98 42.02 2.98 63 0 8.32-5.49 17.32-7.99 27-7.5 10.88-.62 21.54-2.29 32-5 1.87-.11 3.37.56 4.5 2 6.39 22.18 13.39 44.18 21 66a1228.99 1228.99 0 0 1 17 77c-.58 24.17-.41 48.17.5 72-.08 6.37-.58 12.7-1.5 19-5.14 18.41-10.47 36.75-16 55a66.346 66.346 0 0 1-8 17c-5.73 8.07-11.06 16.4-16 25-17.17 17.5-34.67 34.67-52.5 51.5a72.334 72.334 0 0 1-16 5c-11.1.93-22.1 2.43-33 4.5-13.42-1.46-26.75-.79-40 2-.79-.43-1.63-.76-2.5-1-21.45 3.83-43.45 7.16-66 10-24.3-.47-48.8-1.3-73.5-2.5a212.852 212.852 0 0 1-47-11c-23.55-9.94-47.22-19.61-71-29a116.21 116.21 0 0 1-15.5-8.5c-1.938 1.36-3.604 1.03-5-1a43.145 43.145 0 0 1-1.5-5c1.807-9.27 5.974-17.27 12.5-24a47.326 47.326 0 0 0 5-12c3.071-3.12 6.238-6.12 9.5-9 9.129-13.61 14.962-28.61 17.5-45 10.77-24 22.1-47.67 34-71 8.3-26.51 16.3-53.17 24-80 6.04-12.4 10.04-25.4 12-39 4.14-9 6.64-18.5 7.5-28.5-.81-2.46-1.48-4.96-2-7.5 2.16-13.58 4.99-27.24 8.5-41 2.2-5.59 4.2-11.26 6-17l2.5-2.5c4.56-1.57 8.89-3.4 13-5.5zm-586 28c10.691.84 21.357 2.01 32 3.5a20.597 20.597 0 0 1 5 7c5.327-.62 9.66 1.05 13 5a370.353 370.353 0 0 0 29 9 55.158 55.158 0 0 1 11 9.5c-3.959 6.03-9.292 10.53-16 13.5a229.001 229.001 0 0 0-23 7 498.58 498.58 0 0 1-70 0 576.927 576.927 0 0 1-53-11 15.074 15.074 0 0 1-3-3.5c1.808-2.92 4.141-5.42 7-7.5a492.728 492.728 0 0 1 45-25 538.027 538.027 0 0 0 23-7.5zm124 37c1.221.53 2.387 1.19 3.5 2 1.054 24.75 3.054 49.75 6 75a3414.91 3414.91 0 0 1 18 113c9.282 30.53 21.282 59.86 36 88a345.23 345.23 0 0 0 22 51c2.128 3.63 2.461 7.3 1 11a2718.943 2718.943 0 0 0-61.5 62.5 531.894 531.894 0 0 1-80 57 3720.214 3720.214 0 0 1-73 37c-30.866 11.17-62.699 18.01-95.5 20.5-20.998-.63-41.831-3.47-62.5-8.5a863.955 863.955 0 0 0-37-14c-11.333-7.33-22.667-14.67-34-22a199.196 199.196 0 0 1-27.5-30.5c-12.782-30.16-21.615-61.16-26.5-93 5.905-26.32 10.405-52.66 13.5-79a586.12 586.12 0 0 0 16-54 471.808 471.808 0 0 1 31-71l3-9a442.15 442.15 0 0 0 21-34c14.165-15.16 28.665-30 43.5-44.5a479.867 479.867 0 0 0 39-35 53.103 53.103 0 0 1 14.5-4.5 652.507 652.507 0 0 0 101.5 20.5c11.355.59 22.689 1.42 34 2.5a440.705 440.705 0 0 1 24-3c6.66.81 13.326.97 20 .5a448.244 448.244 0 0 0 34-22c7.976-.98 12.142-5.48 12.5-13.5a29.471 29.471 0 0 1 3.5-3z"/><path style="opacity:.007" d="M526.5 704.5c-1 1.667-2.333 3-4 4a5.727 5.727 0 0 1 1-3c.709-.904 1.709-1.237 3-1z"/><path style="opacity:.012" fill="#ff6e42" d="M523.5 705.5a5.727 5.727 0 0 0-1 3c-4.274 3.542-9.274 5.542-15 6 1.074-1.385 2.407-2.551 4-3.5a98.607 98.607 0 0 0 12-5.5z"/></svg>