<?xml version="1.0" encoding="UTF-8" standalone="no"?>
<svg
   xmlns:dc="http://purl.org/dc/elements/1.1/"
   xmlns:cc="http://creativecommons.org/ns#"
   xmlns:rdf="http://www.w3.org/1999/02/22-rdf-syntax-ns#"
   xmlns:svg="http://www.w3.org/2000/svg"
   xmlns="http://www.w3.org/2000/svg"
   xmlns:sodipodi="http://sodipodi.sourceforge.net/DTD/sodipodi-0.dtd"
   xmlns:inkscape="http://www.inkscape.org/namespaces/inkscape"
   inkscape:version="1.0 (4035a4f, 2020-05-01)"
   sodipodi:docname="logo_kinderphysio.svg"
   version="1.1"
   id="svg2"
   xml:space="preserve"
   width="1035.0902"
   height="322.03387"
   viewBox="0 0 1035.0902 322.03387"><sodipodi:namedview
     inkscape:current-layer="svg2"
     inkscape:window-maximized="0"
     inkscape:window-y="38"
     inkscape:window-x="0"
     inkscape:cy="161.01656"
     inkscape:cx="514.34468"
     inkscape:zoom="0.63428713"
     showgrid="false"
     id="namedview880"
     inkscape:window-height="893"
     inkscape:window-width="1728"
     inkscape:pageshadow="2"
     inkscape:pageopacity="0"
     guidetolerance="10"
     gridtolerance="10"
     objecttolerance="10"
     borderopacity="1"
     bordercolor="#666666"
     pagecolor="#ffffff" /><metadata
     id="metadata8"><rdf:RDF><cc:Work
         rdf:about=""><dc:format>image/svg+xml</dc:format><dc:type
           rdf:resource="http://purl.org/dc/dcmitype/StillImage" /></cc:Work></rdf:RDF></metadata><defs
     id="defs6"><clipPath
       clipPathUnits="userSpaceOnUse"
       id="clipPath24"><path
         d="M 0,595.276 H 841.89 V 0 H 0 Z"
         id="path22" /></clipPath></defs><g
     id="g10"
     transform="matrix(1.3333333,0,0,-1.3333333,-46.915332,557.86721)"><g
       id="g12"
       transform="translate(35.1865,371.3093)"><path
         d="M 0,0 H 3.353 V -31.319 L 37.567,0 h 4.344 L 17.069,-22.632 43.435,-54.408 H 39.244 L 14.63,-24.918 3.353,-35.205 V -54.408 H 0 Z"
         style="fill:#2b2b2a;fill-opacity:1;fill-rule:nonzero;stroke:none"
         id="path14" /></g><path
       d="m 82.049,356.069 h 2.896 v -39.167 h -2.896 z m 0,15.24 h 2.896 v -7.849 h -2.896 z"
       style="fill:#2b2b2a;fill-opacity:1;fill-rule:nonzero;stroke:none"
       id="path16" /><g
       id="g18"><g
         id="g20"
         clip-path="url(#clipPath24)"><g
           id="g26"
           transform="translate(94.165,356.069)"><path
             d="m 0,0 h 2.896 v -8.382 h 0.152 c 0.508,1.473 1.231,2.781 2.172,3.924 0.939,1.143 2.031,2.121 3.277,2.934 1.244,0.812 2.602,1.421 4.076,1.829 1.473,0.406 2.972,0.61 4.496,0.61 2.286,0 4.229,-0.281 5.829,-0.839 1.601,-0.559 2.908,-1.295 3.925,-2.21 1.015,-0.914 1.816,-1.943 2.4,-3.086 0.584,-1.143 1.003,-2.299 1.257,-3.467 0.254,-1.169 0.407,-2.299 0.458,-3.391 0.05,-1.093 0.076,-2.046 0.076,-2.858 v -24.231 h -2.896 v 24.765 c 0,0.964 -0.076,2.184 -0.228,3.657 -0.153,1.474 -0.598,2.883 -1.334,4.23 -0.737,1.345 -1.855,2.501 -3.352,3.467 -1.499,0.965 -3.57,1.448 -6.211,1.448 -2.236,0 -4.217,-0.407 -5.944,-1.219 C 9.322,-3.633 7.849,-4.763 6.63,-6.21 5.411,-7.658 4.483,-9.386 3.848,-11.392 3.212,-13.399 2.896,-15.596 2.896,-17.983 V -39.167 H 0 Z"
             style="fill:#2b2b2a;fill-opacity:1;fill-rule:nonzero;stroke:none"
             id="path28" /></g><g
           id="g30"
           transform="translate(149.4111,318.5016)"><path
             d="m 0,0 c 2.488,0 4.635,0.507 6.439,1.524 1.803,1.016 3.302,2.362 4.496,4.039 1.193,1.676 2.082,3.593 2.667,5.753 0.583,2.159 0.876,4.355 0.876,6.591 0,2.286 -0.293,4.508 -0.876,6.668 -0.585,2.158 -1.461,4.089 -2.629,5.791 -1.169,1.702 -2.681,3.06 -4.534,4.077 -1.855,1.015 -4.027,1.524 -6.515,1.524 -2.591,0 -4.801,-0.495 -6.63,-1.486 -1.829,-0.99 -3.341,-2.324 -4.534,-4.001 -1.194,-1.676 -2.057,-3.607 -2.591,-5.791 -0.533,-2.185 -0.8,-4.445 -0.8,-6.782 0,-2.285 0.292,-4.509 0.877,-6.667 0.583,-2.16 1.472,-4.077 2.667,-5.753 C -9.895,3.81 -8.382,2.477 -6.553,1.486 -4.725,0.496 -2.541,0 0,0 M 14.554,6.782 H 14.402 C 12.775,3.683 10.744,1.359 8.306,-0.19 5.867,-1.739 2.896,-2.515 -0.61,-2.515 c -2.947,0 -5.486,0.56 -7.62,1.677 -2.133,1.117 -3.886,2.616 -5.258,4.496 -1.371,1.879 -2.388,4.05 -3.048,6.515 -0.661,2.463 -0.99,5.041 -0.99,7.734 0,2.896 0.355,5.601 1.067,8.116 0.71,2.515 1.79,4.686 3.238,6.515 1.448,1.829 3.263,3.276 5.449,4.343 2.183,1.067 4.749,1.601 7.696,1.601 1.574,0 3.124,-0.217 4.648,-0.648 1.524,-0.432 2.934,-1.055 4.229,-1.867 1.296,-0.813 2.426,-1.829 3.391,-3.048 0.964,-1.219 1.702,-2.591 2.21,-4.115 h 0.152 V 52.808 H 17.45 V -1.6 h -2.896 z"
             style="fill:#2b2b2a;fill-opacity:1;fill-rule:nonzero;stroke:none"
             id="path32" /></g><g
           id="g34"
           transform="translate(205.9521,338.6188)"><path
             d="m 0,0 c -0.103,2.134 -0.458,4.153 -1.069,6.058 -0.612,1.905 -1.516,3.582 -2.713,5.029 -1.197,1.448 -2.649,2.603 -4.355,3.468 -1.707,0.862 -3.655,1.295 -5.845,1.295 -2.343,0 -4.406,-0.445 -6.189,-1.334 -1.783,-0.889 -3.286,-2.057 -4.508,-3.505 C -25.901,9.563 -26.843,7.874 -27.505,5.944 -28.167,4.013 -28.576,2.031 -28.728,0 Z m -28.804,-2.515 v -0.457 c 0,-2.286 0.304,-4.471 0.917,-6.553 0.611,-2.084 1.514,-3.913 2.712,-5.487 1.196,-1.575 2.699,-2.819 4.508,-3.734 1.807,-0.914 3.909,-1.371 6.303,-1.371 3.922,0 7.03,1.029 9.322,3.086 2.292,2.057 3.87,4.915 4.737,8.573 h 2.896 c -0.864,-4.572 -2.732,-8.078 -5.601,-10.516 -2.871,-2.439 -6.668,-3.658 -11.392,-3.658 -2.896,0 -5.424,0.522 -7.582,1.563 -2.16,1.04 -3.963,2.463 -5.411,4.267 -1.447,1.802 -2.527,3.936 -3.238,6.401 -0.712,2.463 -1.067,5.117 -1.067,7.963 0,2.743 0.368,5.372 1.105,7.886 0.736,2.515 1.841,4.725 3.315,6.63 1.473,1.905 3.315,3.429 5.525,4.572 2.209,1.143 4.812,1.715 7.81,1.715 2.743,0 5.169,-0.509 7.278,-1.525 2.107,-1.016 3.873,-2.4 5.295,-4.152 C 0.05,10.935 1.13,8.902 1.867,6.591 2.603,4.279 2.972,1.803 2.972,-0.838 2.972,-1.093 2.958,-1.385 2.934,-1.714 2.907,-2.045 2.896,-2.312 2.896,-2.515 Z"
             style="fill:#2b2b2a;fill-opacity:1;fill-rule:nonzero;stroke:none"
             id="path36" /></g><g
           id="g38"
           transform="translate(218.5254,347.382)"><path
             d="m 0,0 h 0.229 c 0.354,1.269 1.002,2.463 1.942,3.582 0.94,1.116 2.083,2.082 3.43,2.895 1.345,0.812 2.844,1.435 4.496,1.867 1.65,0.431 3.364,0.621 5.143,0.572 V 6.02 C 13.716,6.222 11.975,6.07 10.021,5.562 8.064,5.054 6.197,3.936 4.419,2.21 3.708,1.448 3.086,0.711 2.553,0 2.019,-0.712 1.574,-1.499 1.219,-2.362 0.863,-3.227 0.583,-4.191 0.381,-5.258 0.177,-6.325 0.05,-7.595 0,-9.068 V -30.48 H -2.896 V 8.687 H 0 Z"
             style="fill:#2b2b2a;fill-opacity:1;fill-rule:nonzero;stroke:none"
             id="path40" /></g><g
           id="g42"
           transform="translate(102.0908,252.5881)"><path
             d="m 0,0 h 19.126 c 2.439,0 4.508,0.368 6.211,1.104 1.702,0.737 3.06,1.689 4.077,2.858 1.016,1.169 1.753,2.464 2.21,3.887 0.457,1.422 0.686,2.844 0.686,4.267 0,1.016 -0.153,2.222 -0.458,3.619 -0.305,1.397 -0.914,2.744 -1.829,4.039 -0.914,1.295 -2.197,2.387 -3.848,3.277 -1.651,0.888 -3.848,1.333 -6.591,1.333 H 0 Z m -3.353,27.28 h 23.165 c 1.524,0 3.213,-0.178 5.068,-0.534 1.854,-0.355 3.581,-1.079 5.182,-2.171 1.6,-1.094 2.933,-2.642 4,-4.648 1.067,-2.008 1.6,-4.637 1.6,-7.887 0,-4.776 -1.474,-8.459 -4.419,-11.05 -2.947,-2.591 -7.163,-3.886 -12.65,-3.886 H 0 v -24.232 h -3.353 z"
             style="fill:#2b2b2a;fill-opacity:1;fill-rule:nonzero;stroke:none"
             id="path44" /></g><g
           id="g46"
           transform="translate(146.1343,279.8683)"><path
             d="m 0,0 v -23.623 h 0.152 c 0.508,1.474 1.231,2.781 2.172,3.925 0.939,1.142 2.031,2.12 3.277,2.933 1.244,0.813 2.602,1.422 4.076,1.829 1.473,0.407 2.972,0.61 4.496,0.61 2.286,0 4.229,-0.28 5.829,-0.838 1.601,-0.56 2.908,-1.296 3.925,-2.21 1.015,-0.915 1.816,-1.943 2.4,-3.086 0.584,-1.144 1.003,-2.3 1.257,-3.468 0.254,-1.169 0.407,-2.299 0.458,-3.39 0.05,-1.093 0.076,-2.046 0.076,-2.858 v -24.232 h -2.896 v 24.765 c 0,0.965 -0.076,2.184 -0.228,3.658 -0.153,1.473 -0.598,2.882 -1.334,4.229 -0.737,1.346 -1.855,2.502 -3.352,3.467 -1.499,0.965 -3.57,1.448 -6.211,1.448 -2.236,0 -4.217,-0.407 -5.944,-1.219 -1.727,-0.813 -3.2,-1.943 -4.419,-3.391 C 2.515,-22.898 1.587,-24.626 0.952,-26.633 0.316,-28.64 0,-30.837 0,-33.224 V -54.408 H -2.896 V 0 Z"
             style="fill:#2b2b2a;fill-opacity:1;fill-rule:nonzero;stroke:none"
             id="path48" /></g><g
           id="g50"
           transform="translate(178.0625,264.6281)"><path
             d="M 0,0 H 3.429 L 17.983,-35.738 31.395,0 h 3.276 L 17.907,-43.358 c -0.813,-1.931 -1.562,-3.594 -2.248,-4.992 -0.686,-1.397 -1.461,-2.425 -2.324,-3.087 -1.017,-0.811 -2.223,-1.306 -3.62,-1.485 -1.397,-0.178 -3.238,-0.266 -5.524,-0.266 v 2.514 c 2.082,0 3.707,0.165 4.877,0.495 1.168,0.331 2.26,1.004 3.276,2.02 0.559,0.559 1.143,1.588 1.753,3.086 0.61,1.499 1.372,3.543 2.286,6.134 z"
             style="fill:#2b2b2a;fill-opacity:1;fill-rule:nonzero;stroke:none"
             id="path52" /></g><g
           id="g54"
           transform="translate(217.9902,238.4904)"><path
             d="M 0,0 C 0.102,-1.828 0.507,-3.441 1.219,-4.839 1.93,-6.236 2.858,-7.43 4.001,-8.42 c 1.143,-0.99 2.477,-1.74 4,-2.248 1.524,-0.508 3.175,-0.762 4.954,-0.762 1.269,0 2.628,0.115 4.076,0.343 1.448,0.229 2.793,0.648 4.039,1.258 1.244,0.609 2.273,1.459 3.086,2.553 0.812,1.091 1.219,2.475 1.219,4.152 0,2.184 -0.661,3.835 -1.981,4.953 C 22.072,2.946 20.409,3.811 18.403,4.42 16.396,5.029 14.237,5.525 11.926,5.906 9.613,6.287 7.455,6.858 5.449,7.62 3.441,8.383 1.778,9.461 0.458,10.859 c -1.322,1.397 -1.982,3.441 -1.982,6.134 0,1.93 0.431,3.543 1.295,4.839 0.864,1.295 1.969,2.324 3.315,3.086 1.346,0.762 2.858,1.308 4.534,1.639 1.677,0.33 3.353,0.495 5.029,0.495 2.032,0 3.937,-0.229 5.716,-0.686 1.777,-0.457 3.314,-1.194 4.61,-2.21 1.296,-1.016 2.311,-2.312 3.048,-3.886 0.736,-1.576 1.105,-3.48 1.105,-5.715 h -2.896 c 0,1.777 -0.293,3.301 -0.876,4.572 -0.585,1.269 -1.398,2.298 -2.439,3.086 -1.042,0.787 -2.274,1.372 -3.695,1.753 -1.423,0.381 -2.947,0.571 -4.573,0.571 -1.321,0 -2.654,-0.127 -4,-0.381 C 7.302,23.901 6.096,23.471 5.029,22.86 3.963,22.251 3.086,21.463 2.4,20.498 1.715,19.533 1.372,18.365 1.372,16.993 c 0,-1.575 0.381,-2.846 1.143,-3.809 0.762,-0.966 1.764,-1.742 3.01,-2.325 1.244,-0.585 2.641,-1.055 4.191,-1.41 1.549,-0.355 3.111,-0.712 4.686,-1.066 1.93,-0.357 3.746,-0.776 5.449,-1.258 1.701,-0.483 3.174,-1.143 4.42,-1.981 1.244,-0.838 2.221,-1.918 2.933,-3.239 0.711,-1.321 1.067,-2.998 1.067,-5.029 0,-2.134 -0.483,-3.886 -1.448,-5.258 -0.966,-1.371 -2.185,-2.476 -3.657,-3.314 -1.475,-0.839 -3.113,-1.422 -4.916,-1.753 -1.803,-0.33 -3.569,-0.495 -5.295,-0.495 -2.237,0 -4.306,0.293 -6.211,0.876 -1.905,0.584 -3.57,1.472 -4.991,2.667 C 0.33,-9.208 -0.788,-7.747 -1.6,-6.02 -2.413,-4.293 -2.845,-2.286 -2.896,0 Z"
             style="fill:#2b2b2a;fill-opacity:1;fill-rule:nonzero;stroke:none"
             id="path56" /></g><path
           d="m 253.957,264.628 h 2.896 V 225.46 h -2.896 z m 0,15.24 h 2.896 v -7.849 h -2.896 z"
           style="fill:#2b2b2a;fill-opacity:1;fill-rule:nonzero;stroke:none"
           id="path58" /><g
           id="g60"
           transform="translate(267.1392,245.0441)"><path
             d="m 0,0 c 0,-2.337 0.33,-4.585 0.991,-6.744 0.659,-2.159 1.625,-4.076 2.895,-5.753 1.27,-1.677 2.845,-3.01 4.725,-4.001 1.879,-0.99 4.038,-1.485 6.477,-1.485 2.438,0 4.597,0.495 6.477,1.485 1.879,0.991 3.454,2.324 4.725,4.001 1.269,1.677 2.234,3.594 2.895,5.753 0.66,2.159 0.991,4.407 0.991,6.744 0,2.336 -0.331,4.584 -0.991,6.744 -0.661,2.158 -1.626,4.076 -2.895,5.753 -1.271,1.677 -2.846,3.01 -4.725,4 -1.88,0.991 -4.039,1.486 -6.477,1.486 -2.439,0 -4.598,-0.495 -6.477,-1.486 -1.88,-0.99 -3.455,-2.323 -4.725,-4 C 2.616,10.82 1.65,8.902 0.991,6.744 0.33,4.584 0,2.336 0,0 m -2.896,0 c 0,2.793 0.394,5.422 1.182,7.887 0.787,2.464 1.943,4.634 3.467,6.515 1.524,1.879 3.403,3.365 5.639,4.457 2.234,1.092 4.8,1.639 7.696,1.639 2.895,0 5.46,-0.547 7.696,-1.639 2.235,-1.092 4.115,-2.578 5.639,-4.457 1.524,-1.881 2.679,-4.051 3.467,-6.515 0.787,-2.465 1.181,-5.094 1.181,-7.887 0,-2.795 -0.394,-5.437 -1.181,-7.925 -0.788,-2.49 -1.943,-4.661 -3.467,-6.515 -1.524,-1.855 -3.404,-3.328 -5.639,-4.419 -2.236,-1.092 -4.801,-1.639 -7.696,-1.639 -2.896,0 -5.462,0.547 -7.696,1.639 -2.236,1.091 -4.115,2.564 -5.639,4.419 -1.524,1.854 -2.68,4.025 -3.467,6.515 -0.788,2.488 -1.182,5.13 -1.182,7.925"
             style="fill:#2b2b2a;fill-opacity:1;fill-rule:nonzero;stroke:none"
             id="path62" /></g><g
           id="g64"
           transform="translate(321.3936,262.1135)"><path
             d="m 0,0 h -8.535 v -27.356 c 0,-1.576 0.178,-2.82 0.534,-3.735 0.355,-0.914 0.901,-1.613 1.638,-2.095 0.736,-0.483 1.625,-0.775 2.667,-0.877 1.041,-0.102 2.248,-0.126 3.62,-0.076 v -2.514 c -1.474,-0.101 -2.909,-0.088 -4.306,0.038 -1.397,0.127 -2.629,0.508 -3.696,1.143 -1.067,0.635 -1.918,1.587 -2.552,2.858 -0.636,1.269 -0.903,3.021 -0.8,5.258 V 0 h -7.239 v 2.515 h 7.239 v 12.191 h 2.895 V 2.515 H 0 Z"
             style="fill:#2b2b2a;fill-opacity:1;fill-rule:nonzero;stroke:none"
             id="path66" /></g><g
           id="g68"
           transform="translate(329.6226,279.8683)"><path
             d="m 0,0 v -23.623 h 0.152 c 0.508,1.474 1.231,2.781 2.172,3.925 0.939,1.142 2.031,2.12 3.277,2.933 1.244,0.813 2.602,1.422 4.076,1.829 1.473,0.407 2.972,0.61 4.496,0.61 2.286,0 4.229,-0.28 5.829,-0.838 1.601,-0.56 2.908,-1.296 3.925,-2.21 1.015,-0.915 1.816,-1.943 2.4,-3.086 0.584,-1.144 1.003,-2.3 1.257,-3.468 0.254,-1.169 0.407,-2.299 0.458,-3.39 0.05,-1.093 0.076,-2.046 0.076,-2.858 v -24.232 h -2.896 v 24.765 c 0,0.965 -0.076,2.184 -0.228,3.658 -0.153,1.473 -0.598,2.882 -1.334,4.229 -0.737,1.346 -1.855,2.502 -3.352,3.467 -1.499,0.965 -3.57,1.448 -6.211,1.448 -2.236,0 -4.217,-0.407 -5.944,-1.219 -1.727,-0.813 -3.2,-1.943 -4.419,-3.391 C 2.515,-22.898 1.587,-24.626 0.952,-26.633 0.316,-28.64 0,-30.837 0,-33.224 V -54.408 H -2.896 V 0 Z"
             style="fill:#2b2b2a;fill-opacity:1;fill-rule:nonzero;stroke:none"
             id="path70" /></g><g
           id="g72"
           transform="translate(396.146,247.1779)"><path
             d="m 0,0 c -0.103,2.134 -0.458,4.152 -1.069,6.058 -0.612,1.905 -1.516,3.582 -2.713,5.029 -1.197,1.448 -2.649,2.602 -4.355,3.468 -1.707,0.862 -3.655,1.295 -5.845,1.295 -2.343,0 -4.406,-0.446 -6.189,-1.334 -1.783,-0.889 -3.286,-2.057 -4.508,-3.505 C -25.901,9.563 -26.843,7.873 -27.505,5.943 -28.167,4.013 -28.576,2.031 -28.728,0 Z m -28.804,-2.515 v -0.457 c 0,-2.286 0.304,-4.471 0.917,-6.553 0.611,-2.084 1.514,-3.913 2.712,-5.487 1.196,-1.575 2.699,-2.819 4.508,-3.734 1.807,-0.914 3.909,-1.371 6.303,-1.371 3.922,0 7.03,1.028 9.322,3.086 2.292,2.057 3.87,4.915 4.737,8.572 h 2.896 c -0.864,-4.571 -2.732,-8.077 -5.601,-10.516 -2.871,-2.438 -6.668,-3.657 -11.392,-3.657 -2.896,0 -5.424,0.522 -7.582,1.563 -2.16,1.04 -3.963,2.463 -5.411,4.266 -1.447,1.803 -2.527,3.937 -3.238,6.402 -0.712,2.463 -1.067,5.117 -1.067,7.963 0,2.743 0.368,5.372 1.105,7.886 0.736,2.515 1.841,4.725 3.315,6.63 1.473,1.904 3.315,3.429 5.525,4.571 2.209,1.144 4.812,1.715 7.81,1.715 2.743,0 5.169,-0.509 7.278,-1.524 2.107,-1.017 3.873,-2.401 5.295,-4.152 C 0.05,10.935 1.13,8.902 1.867,6.591 2.603,4.279 2.972,1.803 2.972,-0.839 2.972,-1.093 2.958,-1.385 2.934,-1.715 2.907,-2.046 2.896,-2.313 2.896,-2.515 Z"
             style="fill:#2b2b2a;fill-opacity:1;fill-rule:nonzero;stroke:none"
             id="path74" /></g><g
           id="g76"
           transform="translate(408.7187,255.9406)"><path
             d="m 0,0 h 0.229 c 0.354,1.27 1.002,2.464 1.942,3.582 0.94,1.116 2.083,2.082 3.43,2.896 1.345,0.811 2.844,1.434 4.496,1.867 1.65,0.43 3.365,0.621 5.143,0.571 V 6.021 C 13.716,6.223 11.975,6.07 10.021,5.562 8.064,5.055 6.197,3.937 4.419,2.21 3.708,1.448 3.086,0.711 2.553,0 2.019,-0.712 1.574,-1.499 1.219,-2.362 0.863,-3.227 0.583,-4.19 0.381,-5.258 0.177,-6.324 0.05,-7.595 0,-9.067 V -30.48 H -2.896 V 8.688 H 0 Z"
             style="fill:#2b2b2a;fill-opacity:1;fill-rule:nonzero;stroke:none"
             id="path78" /></g><g
           id="g80"
           transform="translate(451.4678,247.7111)"><path
             d="m 0,0 c -0.711,-0.864 -1.791,-1.448 -3.238,-1.753 -1.448,-0.305 -3.061,-0.533 -4.838,-0.685 l -4.877,-0.458 c -1.424,-0.152 -2.846,-0.369 -4.268,-0.647 -1.424,-0.28 -2.705,-0.751 -3.847,-1.41 -1.145,-0.661 -2.073,-1.563 -2.782,-2.705 -0.712,-1.143 -1.068,-2.629 -1.068,-4.458 0,-2.896 0.914,-5.042 2.744,-6.439 1.828,-1.398 4.344,-2.095 7.543,-2.095 3.303,0 5.918,0.596 7.85,1.791 1.929,1.192 3.402,2.564 4.42,4.114 1.015,1.549 1.662,3.048 1.943,4.496 C -0.141,-8.801 0,-7.823 0,-7.315 Z m 0,-14.479 h -0.152 c -0.457,-1.168 -1.118,-2.273 -1.981,-3.314 -0.865,-1.042 -1.918,-1.97 -3.162,-2.781 -1.246,-0.814 -2.656,-1.448 -4.23,-1.905 -1.575,-0.458 -3.303,-0.686 -5.182,-0.686 -4.166,0 -7.391,0.902 -9.678,2.705 -2.285,1.803 -3.427,4.584 -3.427,8.344 0,2.286 0.457,4.153 1.371,5.6 0.914,1.449 2.068,2.591 3.466,3.43 1.397,0.838 2.946,1.435 4.649,1.79 1.701,0.356 3.34,0.61 4.916,0.763 l 4.494,0.381 C -6.832,0 -5.195,0.24 -4,0.571 c 1.193,0.33 2.096,0.787 2.705,1.372 0.609,0.583 0.99,1.333 1.143,2.248 C 0,5.105 0.076,6.248 0.076,7.62 c 0,1.067 -0.203,2.058 -0.609,2.972 -0.406,0.915 -1.041,1.726 -1.905,2.438 -0.865,0.711 -1.982,1.27 -3.353,1.677 -1.371,0.406 -3.049,0.609 -5.029,0.609 -3.506,0 -6.338,-0.864 -8.496,-2.59 -2.161,-1.728 -3.342,-4.344 -3.543,-7.849 h -2.897 c 0.203,4.317 1.588,7.556 4.152,9.716 2.567,2.158 6.211,3.238 10.936,3.238 4.725,0 8.166,-0.928 10.326,-2.781 2.158,-1.856 3.238,-4.28 3.238,-7.278 v -22.784 c 0,-0.559 0.012,-1.118 0.038,-1.676 0.025,-0.56 0.115,-1.067 0.267,-1.524 0.153,-0.457 0.406,-0.826 0.762,-1.105 0.355,-0.28 0.863,-0.419 1.523,-0.419 0.508,0 1.221,0.076 2.135,0.228 v -2.438 c -0.762,-0.203 -1.551,-0.305 -2.363,-0.305 -1.168,0 -2.096,0.152 -2.781,0.457 -0.686,0.306 -1.207,0.711 -1.563,1.22 -0.355,0.507 -0.598,1.104 -0.723,1.791 C 0.064,-18.098 0,-17.349 0,-16.536 Z"
             style="fill:#2b2b2a;fill-opacity:1;fill-rule:nonzero;stroke:none"
             id="path82" /></g><g
           id="g84"
           transform="translate(481.5303,227.0607)"><path
             d="m 0,0 c 2.545,0 4.748,0.482 6.607,1.447 1.86,0.965 3.387,2.261 4.584,3.887 1.198,1.625 2.089,3.518 2.675,5.677 0.586,2.159 0.879,4.458 0.879,6.896 0,2.235 -0.281,4.432 -0.841,6.592 -0.56,2.158 -1.426,4.088 -2.598,5.791 C 10.135,31.991 8.62,33.363 6.76,34.404 4.9,35.445 2.647,35.967 0,35.967 c -2.599,0 -4.814,-0.509 -6.647,-1.525 -1.834,-1.016 -3.325,-2.362 -4.47,-4.038 -1.147,-1.676 -1.975,-3.594 -2.484,-5.753 -0.509,-2.16 -0.763,-4.408 -0.763,-6.744 0,-2.337 0.228,-4.585 0.687,-6.744 0.458,-2.159 1.235,-4.064 2.33,-5.715 1.095,-1.651 2.572,-2.971 4.432,-3.963 C -5.056,0.495 -2.751,0 0,0 m -14.44,28.575 h 0.152 c 0.305,0.965 0.814,2.031 1.527,3.2 0.712,1.168 1.655,2.248 2.826,3.24 1.171,0.99 2.584,1.815 4.24,2.476 1.655,0.659 3.551,0.99 5.691,0.99 3.004,0 5.614,-0.559 7.828,-1.676 2.215,-1.118 4.049,-2.617 5.5,-4.495 1.451,-1.881 2.533,-4.066 3.247,-6.554 0.712,-2.489 1.07,-5.106 1.07,-7.849 0,-2.998 -0.358,-5.741 -1.07,-8.229 C 15.857,7.187 14.775,5.041 13.324,3.238 11.873,1.435 10.039,0.024 7.824,-0.991 5.61,-2.007 3,-2.515 -0.004,-2.515 c -3.26,0 -6.163,0.712 -8.708,2.134 -2.546,1.421 -4.404,3.734 -5.576,6.934 h -0.152 v -22.174 h -2.82 v 53.188 h 2.82 z"
             style="fill:#2b2b2a;fill-opacity:1;fill-rule:nonzero;stroke:none"
             id="path86" /></g><path
           d="m 506.638,264.628 h 2.896 V 225.46 h -2.896 z m 0,15.24 h 2.896 v -7.849 h -2.896 z"
           style="fill:#2b2b2a;fill-opacity:1;fill-rule:nonzero;stroke:none"
           id="path88" /><g
           id="g90"
           transform="translate(548.624,247.1779)"><path
             d="m 0,0 c -0.102,2.134 -0.458,4.152 -1.068,6.058 -0.613,1.905 -1.517,3.582 -2.713,5.029 -1.198,1.448 -2.65,2.602 -4.356,3.468 -1.707,0.862 -3.655,1.295 -5.844,1.295 -2.343,0 -4.407,-0.446 -6.189,-1.334 -1.784,-0.889 -3.286,-2.057 -4.508,-3.505 C -25.9,9.563 -26.843,7.873 -27.505,5.943 -28.167,4.013 -28.575,2.031 -28.728,0 Z m -28.804,-2.515 v -0.457 c 0,-2.286 0.305,-4.471 0.917,-6.553 0.611,-2.084 1.515,-3.913 2.712,-5.487 1.197,-1.575 2.699,-2.819 4.508,-3.734 1.808,-0.914 3.909,-1.371 6.304,-1.371 3.922,0 7.029,1.028 9.321,3.086 2.292,2.057 3.871,4.915 4.737,8.572 h 2.896 c -0.864,-4.571 -2.731,-8.077 -5.601,-10.516 -2.87,-2.438 -6.667,-3.657 -11.391,-3.657 -2.896,0 -5.424,0.522 -7.582,1.563 -2.161,1.04 -3.963,2.463 -5.411,4.266 -1.448,1.803 -2.528,3.937 -3.239,6.402 -0.712,2.463 -1.066,5.117 -1.066,7.963 0,2.743 0.368,5.372 1.104,7.886 0.737,2.515 1.841,4.725 3.316,6.63 1.472,1.904 3.314,3.429 5.524,4.571 2.21,1.144 4.813,1.715 7.811,1.715 2.743,0 5.169,-0.509 7.277,-1.524 2.107,-1.017 3.873,-2.401 5.296,-4.152 C 0.051,10.935 1.13,8.902 1.867,6.591 2.604,4.279 2.973,1.803 2.973,-0.839 2.973,-1.093 2.959,-1.385 2.935,-1.715 2.908,-2.046 2.896,-2.313 2.896,-2.515 Z"
             style="fill:#2b2b2a;fill-opacity:1;fill-rule:nonzero;stroke:none"
             id="path92" /></g><g
           id="g94"
           transform="translate(653.1334,260.3707)"><path
             d="M 0,0 C 0.194,0 0.784,-0.074 1.349,0.013 3.727,0.376 6.076,0.843 7.999,2.46 8.808,3.14 8.932,3.828 7.915,4.376 6.998,4.871 6.035,5.291 5.068,5.682 3.44,6.34 1.63,6.7 0.191,7.638 -1.828,8.953 -3.945,9.266 -6.131,8.845 -10.179,8.066 -13.511,5.671 -16.96,3.588 -17.325,3.368 -17.52,2.867 -17.794,2.497 -17.387,2.22 -17.017,1.837 -16.568,1.682 -11.307,-0.133 -5.856,-0.183 0,0 m 108.582,12.493 c 2.102,0.185 4.202,0.468 6.308,0.532 3.243,0.098 6.219,0.995 9.033,2.561 0.849,0.472 1.058,0.947 0.265,1.633 -0.437,0.378 -0.838,0.815 -1.324,1.114 -2.695,1.655 -5.334,3.427 -8.138,4.879 -6.072,3.144 -12.256,3.48 -18.227,-0.211 -2.045,-1.264 -3.805,-3.018 -5.585,-4.668 -0.822,-0.761 -0.518,-1.475 0.55,-1.977 5.426,-2.55 11.066,-4.091 17.118,-3.863 m -147.558,107.15 c -1.338,-0.146 -2.828,-0.241 -4.294,-0.483 -4.501,-0.743 -8.94,-1.797 -12.161,-5.324 -2.175,-2.382 -4.846,-4.519 -4.761,-8.339 0.049,-2.142 0.127,-2.926 2.276,-3.382 3.323,-0.705 6.698,-1.267 10.079,-1.549 1.5,-0.125 3.184,0.327 4.585,0.96 4.35,1.963 7.473,5.483 10.734,8.832 1.382,1.419 1.392,2.759 0.645,4.416 -0.337,0.746 -0.603,1.683 -0.46,2.452 0.249,1.346 -0.367,1.817 -1.461,1.948 -1.668,0.201 -3.348,0.309 -5.182,0.469 m 180.929,11.813 c 2.253,0.377 4.949,0.642 7.527,1.344 1.18,0.321 2.716,1.307 3.052,2.332 0.652,1.992 0.779,4.228 0.743,6.356 -0.047,2.784 -1.478,5.214 -3.105,7.32 -1.216,1.576 -2.897,3.095 -4.701,3.84 -2.368,0.977 -4.971,2.255 -7.696,0.679 -0.485,-0.28 -1.091,-0.487 -1.642,-0.489 -1.974,-0.006 -3.301,-1.125 -4.563,-2.428 -1.231,-1.27 -2.617,-2.416 -3.684,-3.809 -0.71,-0.928 -1.5,-2.283 -1.326,-3.286 0.258,-1.481 -0.102,-2.717 -0.406,-4.042 -0.161,-0.704 -0.438,-1.403 -0.455,-2.109 -0.012,-0.507 0.178,-1.163 0.523,-1.51 1.699,-1.71 3.741,-2.903 6.15,-3.218 3.044,-0.396 6.108,-0.633 9.583,-0.98 M 88.175,43.007 c -0.446,-1.925 -0.915,-3.721 -1.268,-5.539 -0.346,-1.784 -0.39,-3.513 1.064,-4.984 0.32,-0.323 0.445,-1.321 0.193,-1.651 -1.611,-2.107 -1.427,-4.627 -1.781,-7.018 -0.052,-0.355 0.201,-0.755 0.313,-1.134 0.347,0.11 0.752,0.139 1.03,0.342 1.556,1.131 3.007,2.424 4.632,3.441 4.363,2.729 9.186,4.193 14.283,3.416 6.415,-0.978 12.447,-3.247 17.792,-7.063 1.873,-1.338 3.71,-2.729 5.516,-4.158 1.1,-0.87 1.798,-0.892 2.892,0.161 1.805,1.737 3.634,3.451 5.386,5.241 0.87,0.889 1.689,1.86 2.364,2.903 2.563,3.961 4.22,8.299 5.126,12.924 0.879,4.489 1.129,8.898 -1.715,12.896 -0.361,0.508 -0.662,1.058 -1.006,1.579 -2.945,4.454 -6.59,8.225 -11.51,10.396 -2.731,1.205 -5.732,1.82 -8.64,2.591 -1.376,0.364 -2.814,0.589 -4.234,0.656 -1.082,0.051 -2.189,-0.2 -3.271,-0.396 -2.119,-0.384 -4.266,-0.688 -6.332,-1.27 -3.093,-0.872 -6.149,-1.895 -9.174,-2.985 -0.994,-0.358 -1.848,-1.114 -2.751,-1.71 -0.518,-0.342 -0.959,-0.841 -1.516,-1.076 -3.146,-1.324 -5.844,-3.079 -6.906,-6.585 -0.093,-0.308 -0.335,-0.59 -0.56,-0.836 -1.486,-1.62 -1.697,-3.607 -1.662,-5.668 0.005,-0.337 0.05,-0.678 0.016,-1.01 -0.251,-2.452 -0.256,-2.451 1.719,-3.463 M -34.641,24.056 c 0.127,-2.394 0.345,-4.175 0.288,-5.947 -0.083,-2.607 0.654,-4.798 2.538,-6.642 0.816,-0.798 1.377,-1.855 2.188,-2.658 0.977,-0.967 1.837,-2.577 3.558,-1.828 3.022,1.315 6.141,2.55 8.878,4.34 3.797,2.483 7.868,3.56 12.233,3.143 1.531,-0.147 2.937,-0.105 4.445,-0.022 4.563,0.251 9.12,0.18 13.185,-2.493 1.282,-0.843 1.934,-0.399 1.981,1.182 0.035,1.199 -0.132,2.41 -0.035,3.602 0.31,3.828 0.98,7.649 1.002,11.476 0.041,7.153 1.916,13.886 4.466,20.41 1.614,4.13 3.95,7.991 6.127,11.881 1.069,1.912 0.777,4.137 -1.08,5.358 -1.295,0.852 -2.548,1.771 -3.866,2.583 -2.615,1.613 -5.283,2.422 -8.31,0.887 C 11.485,68.581 9.811,68.223 8.218,67.724 7.587,67.526 6.909,67.474 6.281,67.27 4.279,66.622 2.32,65.82 0.289,65.286 c -2.91,-0.766 -5.713,-1.727 -8.106,-3.6 -2.873,-2.25 -5.739,-4.513 -8.542,-6.849 -2.136,-1.781 -4.379,-3.502 -6.195,-5.58 -2.399,-2.744 -4.55,-5.73 -6.588,-8.76 -3.453,-5.132 -5.19,-10.866 -5.499,-16.441 m 148.13,-78.802 c 0.015,-0.122 0.03,-0.244 0.045,-0.367 2.292,0.248 4.591,0.442 6.873,0.764 1.388,0.197 2.633,0.707 3.67,1.81 1.445,1.539 3.13,2.85 4.601,4.368 1.232,1.271 2.314,2.69 3.444,4.059 2.457,2.975 3.638,6.546 4.536,10.194 0.66,2.687 1.145,5.436 1.441,8.186 0.188,1.742 -0.437,3.596 -0.132,5.298 0.752,4.201 -0.564,8.117 -1.417,12.055 -0.975,4.496 -2.487,8.874 -3.73,13.313 -0.855,3.05 -0.833,3.104 -3.929,2.715 -2.078,-0.261 -4.142,-0.651 -6.203,-1.032 -0.931,-0.172 -1.834,-0.64 -2.758,-0.667 -2.539,-0.072 -5.099,-0.157 -7.618,0.091 -2.66,0.262 -5.305,0.81 -7.917,1.405 -2.479,0.564 -4.955,1.219 -7.346,2.074 -2.564,0.917 -5.121,1.945 -7.507,3.243 -1.888,1.027 -4.145,0.464 -4.815,-1.608 -1.031,-3.19 -1.714,-6.397 -1.841,-9.802 -0.092,-2.478 -1.056,-4.935 -1.725,-7.375 -0.366,-1.337 -0.97,-2.608 -1.39,-3.932 -1.075,-3.388 -1.913,-6.865 -3.204,-10.166 -1.603,-4.101 -3.58,-8.056 -5.364,-12.088 -0.387,-0.873 -0.636,-1.807 -0.955,-2.71 -0.413,-1.171 -0.673,-2.432 -1.285,-3.49 -1.116,-1.929 -2.479,-3.713 -3.664,-5.604 -0.606,-0.969 -1.113,-2.013 -1.544,-3.072 -0.343,-0.844 0.024,-1.421 0.913,-1.778 2.584,-1.038 5.11,-2.224 7.714,-3.204 3.684,-1.386 7.368,-2.821 11.151,-3.878 2.041,-0.571 4.289,-0.531 6.444,-0.533 4.122,-0.004 8.257,0.002 12.364,0.301 3.731,0.271 7.433,0.938 11.148,1.43 M 14.744,-1.98 15.02,-1.939 c -0.072,1.197 -0.085,2.401 -0.245,3.585 -0.065,0.476 -0.45,0.909 -0.69,1.362 -0.352,-0.4 -0.706,-0.8 -1.057,-1.202 C 12.727,1.462 12.48,1.045 12.119,0.786 11.461,0.313 10.747,-0.087 10.036,-0.482 8.497,-1.336 7.008,-2.709 5.386,-2.896 2.076,-3.277 -1.313,-3.137 -4.66,-2.99 c -5.305,0.234 -10.501,1.222 -15.577,2.792 -2.31,0.715 -4.228,0.413 -6.028,-1.446 -2.369,-2.447 -4.973,-4.671 -7.527,-6.934 -3.249,-2.879 -5.841,-6.291 -7.725,-10.15 -1.978,-4.052 -3.83,-8.201 -5.298,-12.458 -1.354,-3.925 -2.173,-8.039 -3.132,-12.093 -0.453,-1.914 -0.476,-3.945 -1.061,-5.808 -0.804,-2.558 -0.655,-5.022 -0.021,-7.53 0.436,-1.723 0.854,-3.453 1.375,-5.151 1.242,-4.051 2.911,-7.856 6.415,-10.538 3.668,-2.807 7.695,-4.926 12.161,-6.112 5.537,-1.472 11.098,-1.498 16.703,-0.207 4.763,1.096 9.235,2.803 13.606,5.024 6.431,3.268 12.636,6.846 18.018,11.654 3.445,3.077 6.542,6.541 9.862,9.764 0.997,0.968 1.085,1.783 0.516,3.041 -2.419,5.336 -4.825,10.683 -7.02,16.114 -1.111,2.747 -1.93,5.643 -2.569,8.54 -0.566,2.569 -0.654,5.24 -1.039,7.854 -0.719,4.889 -1.5,9.77 -2.255,14.654 m 7.878,10.69 c 0,-1.781 0.204,-3.592 -0.047,-5.337 -0.398,-2.765 0.049,-5.438 0.356,-8.148 0.274,-2.426 0.744,-4.885 0.574,-7.29 -0.177,-2.497 -0.12,-4.844 0.63,-7.248 0.581,-1.861 0.806,-3.837 1.15,-5.769 0.433,-2.438 0.433,-5.04 1.327,-7.289 1.411,-3.546 3.446,-6.839 5.145,-10.274 0.717,-1.449 1.168,-3.029 1.891,-4.474 0.88,-1.76 1.826,-3.503 2.917,-5.138 1.061,-1.588 2.062,-3.453 3.58,-4.452 3.741,-2.464 6.707,-2.703 9.781,0.745 0.641,0.719 1.407,1.361 1.902,2.17 3.498,5.714 7.593,11.107 9.664,17.603 1.298,4.071 2.573,8.15 3.871,12.221 0.714,2.237 1.494,4.454 2.174,6.701 1.096,3.617 2.206,7.233 3.172,10.886 0.66,2.498 0.772,5.178 1.685,7.564 1.484,3.88 2.833,7.751 3.221,11.906 0.299,3.208 0.477,6.433 0.907,9.623 0.256,1.899 0.576,3.708 0.289,5.677 -0.275,1.892 0.036,3.884 0.197,5.822 0.155,1.855 1.253,3.496 0.699,5.571 -0.827,3.096 0.044,6.195 0.861,9.214 0.246,0.907 0.094,1.488 -0.575,2.17 -0.629,0.642 -1.231,1.492 -1.424,2.346 -0.536,2.374 -0.854,4.798 -1.255,7.202 -0.196,1.173 -0.323,2.362 -0.599,3.515 -0.295,1.235 -0.659,2.465 -1.126,3.645 -0.353,0.891 -0.826,1.768 -1.412,2.523 -0.571,0.735 -1.343,1.316 -2.044,1.946 -0.424,0.38 -0.858,0.755 -1.324,1.078 -2.542,1.759 -5.575,1.977 -8.463,2.596 -1.733,0.371 -3.609,1.051 -5.199,-0.441 -2.16,-2.027 -5.543,-2.069 -7.395,-4.599 -0.17,-0.232 -0.654,-0.209 -0.905,-0.412 -1.445,-1.172 -2.916,-2.321 -4.264,-3.597 -0.476,-0.45 -0.47,-1.44 -0.963,-1.837 C 39.234,63.208 37.341,60.94 35.638,58.371 33.166,54.641 30.598,51.002 29.142,46.723 28.756,45.588 28.588,44.357 28.065,43.296 26.247,39.61 24.792,35.807 24.147,31.743 23.669,28.732 23.362,25.694 22.965,22.67 22.878,22.004 22.642,21.345 22.637,20.682 22.606,16.691 22.621,12.7 22.622,8.71 m -66.171,116.879 c 2.95,-0.222 6.504,-0.415 10.04,-0.784 1.91,-0.199 3.637,-0.915 5.136,-2.28 1.187,-1.082 2.55,-1.718 4.43,-1.554 4.171,0.363 8.236,-0.609 12.151,-2.017 7.59,-2.731 14.516,-6.699 20.682,-11.876 4.558,-3.827 8.987,-7.823 13.275,-11.949 4.393,-4.227 8.607,-8.646 12.768,-13.103 1.354,-1.45 2.384,-3.233 3.392,-4.963 0.54,-0.927 1.044,-1.083 1.809,-0.488 3.418,2.659 7.4,4.246 11.343,5.861 4.014,1.644 7.761,0.301 11.315,-1.591 2.05,-1.091 4.159,-1.475 6.398,-1.115 0.458,0.074 1.043,0.558 1.221,0.995 2.848,6.989 6.656,13.387 11.208,19.419 4.735,6.273 9.678,12.392 15.371,17.754 5.911,5.568 12.38,10.565 20.016,13.743 1.294,0.538 2.03,1.257 2.114,2.973 0.179,3.656 0.511,7.371 1.389,10.911 1.134,4.568 4.372,7.748 8.446,9.941 1.879,1.012 3.925,1.937 6.002,2.312 5.036,0.91 9.58,-0.738 13.748,-3.483 1.676,-1.104 3.36,-2.257 4.806,-3.634 2.154,-2.053 3.236,-4.762 4.253,-7.546 1.045,-2.861 0.412,-5.716 0.463,-8.561 0.017,-0.97 -0.858,-1.957 -1.333,-2.932 -0.364,-0.75 -0.926,-1.463 -1.06,-2.25 -0.154,-0.898 -0.458,-1.357 -1.358,-1.251 -1.662,0.196 -3.11,-0.002 -4.14,-1.574 -0.214,-0.327 -0.949,-0.412 -1.45,-0.429 -0.715,-0.025 -1.521,0.36 -2.137,0.143 -2.185,-0.773 -4.317,-0.511 -6.511,-0.124 -3.548,0.626 -7.239,0.38 -10.555,2.351 -1.059,0.63 -2.09,1.104 -2.97,2.037 -0.383,0.406 -1.636,0.441 -2.226,0.132 -4.71,-2.472 -9.701,-4.498 -13.444,-8.544 -1.024,-1.106 -2.397,-1.97 -3.751,-2.673 -3.333,-1.729 -5.457,-4.605 -7.669,-7.467 -1.725,-2.234 -3.702,-4.271 -5.524,-6.433 -0.772,-0.917 -1.41,-1.944 -2.144,-2.894 -2.431,-3.15 -5.234,-6.082 -7.208,-9.495 -1.616,-2.792 -3.946,-4.941 -5.599,-7.629 -0.573,-0.933 -1.031,-1.938 -1.515,-2.923 -0.861,-1.75 -1.851,-3.457 -2.507,-5.283 -0.621,-1.728 0.182,-2.823 1.839,-3.515 0.615,-0.256 1.078,-0.958 1.52,-1.528 1.118,-1.445 1.323,-3.448 2.978,-4.619 0.517,-0.365 0.628,-1.334 0.877,-2.043 0.44,-1.253 0.858,-2.515 1.255,-3.782 0.197,-0.627 0.285,-1.29 0.503,-1.908 0.145,-0.413 0.356,-0.896 0.689,-1.112 0.161,-0.104 0.765,0.26 1.015,0.546 3.61,4.136 8.172,6.869 13.037,9.29 5.207,2.592 10.776,3.441 16.417,3.989 3.827,0.371 7.551,-0.651 11.251,-1.531 5.449,-1.297 10.405,-3.771 15.066,-6.77 1.863,-1.199 3.395,-2.962 4.933,-4.604 1.791,-1.912 3.472,-3.935 5.096,-5.993 0.477,-0.605 0.584,-1.497 0.887,-2.247 0.395,-0.974 0.718,-1.996 1.246,-2.895 1.274,-2.171 0.697,-4.481 0.634,-6.749 -0.021,-0.737 -0.323,-1.462 -0.396,-2.203 -0.365,-3.682 -1.477,-7.134 -3.123,-10.429 -0.108,-0.215 -0.295,-0.409 -0.342,-0.634 -0.427,-2.03 -1.474,-3.664 -2.827,-5.242 -1.064,-1.241 -1.631,-2.896 -2.527,-4.299 -0.303,-0.475 -0.956,-0.716 -1.41,-1.108 -0.549,-0.473 -1.063,-0.987 -1.575,-1.499 -0.093,-0.093 -0.067,-0.338 -0.163,-0.391 -1.651,-0.902 -2.556,-2.546 -3.85,-3.767 -0.901,-0.85 -1.097,-1.392 -0.719,-2.384 0.53,-1.392 1.288,-2.744 1.54,-4.185 0.488,-2.795 1.806,-5.214 2.839,-7.786 1.074,-2.672 1.373,-5.668 1.902,-8.542 0.511,-2.781 0.979,-5.578 1.282,-8.387 0.174,-1.602 -0.01,-3.243 -0.05,-4.866 -0.029,-1.153 -0.202,-2.315 -0.107,-3.456 0.242,-2.911 -0.022,-5.735 -0.893,-8.532 -0.64,-2.053 -1.215,-4.139 -1.613,-6.249 -0.332,-1.762 -1.241,-3.067 -2.471,-4.263 -0.548,-0.532 -1.039,-1.138 -1.483,-1.761 -1.121,-1.573 -1.953,-3.461 -3.368,-4.68 -1.312,-1.13 -2.213,-3.155 -4.458,-2.964 -0.133,0.011 -0.324,-0.041 -0.404,-0.135 -1.065,-1.242 -2.299,-2.393 -3.091,-3.792 -0.385,-0.68 -0.614,-1.165 -1.381,-1.372 -2.539,-0.685 -5.065,-1.416 -7.601,-2.114 -0.509,-0.141 -1.034,-0.27 -1.558,-0.305 -4.543,-0.301 -9.089,-0.571 -13.632,-0.867 -8.449,-0.552 -16.366,1.685 -24.21,4.465 -3.968,1.405 -8.045,2.501 -12.052,3.799 -1.131,0.366 -2.257,0.843 -3.268,1.461 -1.728,1.057 -2.699,0.979 -3.998,-0.518 -1.539,-1.775 -2.949,-3.709 -4.716,-5.223 -1.222,-1.047 -2.889,-1.855 -4.471,-2.141 -2.664,-0.481 -5.301,0.04 -7.938,0.914 -3.753,1.243 -7.229,2.862 -10.287,5.377 -0.752,0.618 -1.218,0.41 -1.958,-0.414 -2.596,-2.89 -5.194,-5.848 -8.192,-8.286 -3.901,-3.171 -8.185,-5.87 -12.306,-8.769 -0.157,-0.111 -0.321,-0.235 -0.5,-0.287 -4.08,-1.166 -7.414,-3.84 -11.229,-5.531 -1,-0.443 -2.162,-0.51 -3.182,-0.917 -4.461,-1.784 -9.24,-2.14 -13.895,-2.901 -2.669,-0.437 -5.554,0.13 -8.298,0.541 -4.33,0.647 -8.624,1.55 -12.63,3.432 -4.61,2.165 -8.876,4.845 -12.283,8.694 -2.132,2.408 -3.151,5.417 -3.897,8.455 -0.684,2.787 -1.324,5.657 -1.391,8.504 -0.069,2.979 0.503,5.985 0.911,8.963 0.818,5.969 2.257,11.814 4.256,17.479 1.447,4.104 3.327,8.064 5.162,12.02 2.824,6.093 7.151,11.055 12.15,15.446 1.069,0.94 2.394,1.593 3.617,2.352 1.297,0.806 1.355,1.263 0.173,2.258 -0.552,0.464 -1.181,0.836 -1.745,1.288 -3.876,3.109 -6.472,7.195 -7.254,11.979 -1.208,7.381 -0.964,14.759 2.301,21.763 2.511,5.384 5.996,10.143 9.986,14.418 3.853,4.126 8.177,7.858 12.585,11.402 2.284,1.837 5.123,3.063 7.854,4.236 1.636,0.703 3.564,0.695 5.328,1.14 2.692,0.678 5.389,1.37 8.02,2.248 1.821,0.608 3.572,0.377 5.39,0.222 1.662,-0.141 3.357,0.092 5.015,-0.071 1.892,-0.185 3.8,-0.481 5.626,-0.995 1.793,-0.505 3.54,-1.247 5.217,-2.069 1.135,-0.556 2.088,-1.471 3.17,-2.149 0.965,-0.606 1.8,-0.331 2.562,0.504 1.038,1.137 2.135,2.222 3.24,3.295 0.598,0.58 0.489,1.041 -0.026,1.6 -4.73,5.124 -9.441,10.264 -14.168,15.391 -2.319,2.514 -4.534,5.141 -7.023,7.476 -2.488,2.333 -5.278,4.341 -7.9,6.534 -3.735,3.123 -7.507,6.19 -11.904,8.365 -3.716,1.839 -7.525,3.416 -11.66,4.074 -1.136,0.181 -2.243,0.555 -3.381,0.716 -1.141,0.162 -2.105,-0.179 -2.456,-1.441 -0.793,-2.853 -2.467,-5.21 -4.489,-7.252 -2.326,-2.35 -4.927,-4.426 -7.347,-6.687 -2.334,-2.18 -5.134,-3.263 -8.202,-3.893 -3.825,-0.785 -7.637,-0.728 -11.452,-0.049 -4.41,0.785 -7.943,3.124 -10.821,6.45 -1.21,1.398 -1.536,3.213 -1.298,5.028 0.942,7.209 4.714,12.493 11.101,15.891 0.907,0.483 2.007,0.725 3.042,0.821 2.682,0.247 5.377,0.35 8.682,0.548"
             style="fill:#ff6e42;fill-opacity:1;fill-rule:nonzero;stroke:none"
             id="path96" /></g></g></g></g></svg>
